<svg width="124" height="43" xmlns="http://www.w3.org/2000/svg"><path d="M7.82 20.494c-1.24 2.787-2.126 5.535-1.794 7.227.192 1.413 1.115 2.371 3.491 1.944 2.033-.477 5.194-2.357 6.273-3.393.004 1.155.34 2.2 1.112 2.89.894.704 2.087.802 3.42.506 7.364-1.642 15.223-10.09 17.28-18.255.783-3.108.969-7.951-1.806-10.274-1.856-1.554-4.592-1.65-6.946.536l-.014.013c.48-.087 1.436-.144 2.359.484 1.036.705 1.7 2.053 1.98 4.012.435 6.044-2.65 12.857-6.676 16.864-1.19 1.143-2.284 1.904-3.016 2.246-.92.43-1.535.355-1.894-.013-.898-.923-.118-2.758.338-3.625L28.63 8.921h-4.554l-6.746 12.575c-.512.813-1.284 1.533-3.003 2.854a8.16 8.16 0 0 1-1.282.887c-1.87.927-1.847-.45-1.377-2.023.687-2.301 5.134-10.955 6.926-13.61l.368-.683h-4.59l-.014.025c-.569.805-1.109 1.602-1.622 2.398l-.36.607c-.691 1.161-1.462 2.44-2.637 3.655C6.883 18.558 3.99 19.198.01 19.393l-.01.001c.045.05.106.112.184.183 1.656 1.512 5.65 1.592 7.379 1.005l.257-.088zm82.34-1.862a2.01 2.01 0 0 1 .305-.035c.703-.048 1.142.657 1.075 1.294l.002.011-1.219 2.28-.053.1c-.83 1.56-1.825 2.665-3.231 3.466-.147.1-.364.2-.592.254-.833.096-1.245-.427-1.101-1.268.414-2.42 3.213-5.987 4.814-6.102zm4.952 5.449l-1.88 1.343c-.205-1.334 4.233-8.902 4.233-8.902H93.28s-.326.633-.324.578c0-.037-1.625-1.428-4.53-.13-.744.214-1.892.919-3.064 1.934-3.62 3.133-1.739 1.879-5.333 4.64-.968.744-1.749 1.326-1.749 1.326.492-1.043.933-1.955 1.316-2.738l.059-.118c.855-1.726 1.593-3.5 1.5-4.547-.182-1.21-1.448-2.213-6.954 1.13-.057.035-.517.358-.906.63.225-.685.348-1.295.307-1.76-.181-1.21-1.448-2.213-6.954 1.13-.039.023-.266.182-.53.367l1.286-2.401a.448.448 0 0 1 .017-.036h-4.12l-6.548 12.237h4.113l.039-.073 3.877-7.234c.804-.629 1.41-1.035 2.269-1.594.685-.425 1.315-.704 1.58-.52.122.084.166.365.134.484-.098.364-.429 1.025-.525 1.21-.099.185-4.074 7.727-4.074 7.727h4.37l.038-.082 2.564-4.809c.412-.77.857-1.622 1.257-2.463.775-.602 1.371-1.002 2.21-1.547.684-.425 1.315-.704 1.579-.52.122.084.166.365.135.484-.099.364-.43 1.025-.526 1.21-.02.036-.189.356-.8 1.517h.002c-.67 1.246-1.49 2.818-1.95 4.036-.402 1.07-.434 2.396.946 2.514 1.337.084 3.089-1.206 3.767-1.723.886-.673 2.726-2.329 3.675-3.153-.448 1.238-.574 2.522-.171 3.754.033.097.072.191.116.281.859 1.752 3.17 1.346 4.86.35 1.163-.696 2.167-1.657 2.167-1.657s-.138 2.35 1.73 2.373c1.561.017 5.284-3.114 6.52-4.193l-1.941 3.628h4.113l.038-.073 3.878-7.234c.805-.629 1.41-1.035 2.269-1.594.685-.425 1.314-.704 1.58-.52.122.084.166.365.134.484-.098.364-.429 1.025-.526 1.21l-.844 1.602h-.007c-.663 1.232-1.456 2.76-1.905 3.95-.375.998-.428 2.22.686 2.475 1.577.376 3.613-1.025 4.749-1.987a30.93 30.93 0 0 0 1.455-1.126c.086.6.324 1.178.674 1.693 1.994 2.94 6.5 2.077 8.127 1.373 2.43-1.048 4.637-3.543 1.04-9.132-.431-.67-.657-1.341-.42-1.858.207-.451.607-.906 1.48-.766.826.178.442 1.824-.001 2.537 2.065-.003 3.403-1.03 2.454-2.632-.346-.587-2.638-2.21-5.382.165-1.486 1.285-1.954 3.83-.86 6.538.42 1.04.584 1.813.582 2.39-.003 1.094-.692 1.7-1.766 1.7-1.572 0-2.753-1.53-2.51-3.06.16-.998.84-2.116 2.275-3.148-1.58-.404-2.805-.117-3.726.484-.847.549-1.394 1.185-1.699 1.85-.26.204-.566.44-.926.717-.967.743-1.748 1.326-1.748 1.326.308-.654 1.347-2.512 1.613-3.063.52-1.077 2.474-4.527 1.96-5.87-.34-1.066-1.81-1.684-6.892 1.402-.039.023-.266.182-.53.367l1.286-2.401.017-.036h-4.12l-1.03 1.926c-1.082 1.889-1.297 2.894-5.121 5.628zm-41.286-5.449c.102-.02.204-.031.306-.035.702-.048 1.313.657 1.245 1.294l.002.011-1.218 2.28a6.26 6.26 0 0 0-.054.1c-.83 1.56-1.824 2.665-3.231 3.466-.145.099-.411.197-.682.25-.91.1-1.358-.572-1.121-1.56.575-2.403 3.217-5.695 4.753-5.806zm-16.852 3.957l.008-.02c.256-1.187.768-2.434 2.141-3.369 1.42-.967 2.201-.677 2.455-.134.441.948-1.02 2.013-1.644 2.418-1.095.709-2.193 1.002-2.71 1.048l-.25.057zm19.677-5.067a5.23 5.23 0 0 0-.343-.368c-.783-.758-1.952-.917-2.965-.746-1.969.29-3.734 1.66-4.993 2.896-.94.925-2.024 2.162-2.698 2.894-.21.203-.425.41-.642.616-1.106 1.049-4.59 3.493-6.751 3.346-.758-.051-1.307-.392-1.474-1.12l-.004-.016a.785.785 0 0 1 .042 0c.642-.02 1.9-.319 2.901-.722 1.722-.606 3.759-1.652 4.993-3.411a6.092 6.092 0 0 0 .84-1.705c.334-1.074.417-2.972-2.506-2.89-1.556.043-3.117.558-4.554 1.376-2.454 1.3-4.918 3.88-5.705 6.566-.623 2.128-.368 4.56 2.465 5.112.406.08.828.103 1.242.08 2.795-.144 6.358-2.562 8.493-4.643-.325 1.245-.307 2.487.302 3.527.222.379.54.696.974.928 1.384.662 3.293-.16 4.483-1.129.136-.11.273-.22.412-.323l-1.97 3.685c-1.219 2.28-3.803 6.471-7.119 7.753-2.21.854-4.045-.172-3.786-2.4.06-.594.198-1.09.238-1.24l-.062.037c-1.478.918-2.258 2.687-2.03 4.003.124 1.316.89 2.765 3.279 3.288 6.349 1.002 11.321-7.192 13.282-10.851.77-1.44 8.339-15.568 8.339-15.568-1.665 0-3.915.004-4.137.004l-.546 1.02z" fill="#2F2F2F" fill-rule="nonzero"/></svg>