<svg xmlns="http://www.w3.org/2000/svg" width="40" height="33"><path fill="#FFF" d="M12.58 32.68c15.095 0 23.35-12.505 23.35-23.349 0-.356-.008-.71-.024-1.062A16.693 16.693 0 0040 4.014a16.395 16.395 0 01-4.713 1.292 8.226 8.226 0 003.608-4.54 16.448 16.448 0 01-5.21 1.991 8.211 8.211 0 00-13.985 7.49A23.295 23.295 0 012.785 1.673a8.214 8.214 0 002.54 10.957 8.153 8.153 0 01-3.718-1.021v.105a8.213 8.213 0 006.585 8.046 8.213 8.213 0 01-3.707.14 8.216 8.216 0 007.66 5.7 16.468 16.468 0 01-10.188 3.506A16.51 16.51 0 010 28.992a23.24 23.24 0 0012.58 3.689"/></svg>