<svg xmlns="http://www.w3.org/2000/svg" width="40" height="40"><path fill="#FFF" d="M20 0a19.84 19.84 0 00-7.23 38.315c-.172-1.569-.326-3.984.07-5.696.36-1.548 2.326-9.861 2.326-9.861a7.16 7.16 0 01-.593-2.94c0-2.758 1.598-4.817 3.592-4.817 1.693 0 2.51 1.27 2.51 2.793 0 1.703-1.083 4.245-1.643 6.606-.467 1.974.99 3.592 2.939 3.592 3.526 0 6.236-3.718 6.236-9.084 0-4.75-3.414-8.07-8.285-8.07-5.65-.014-8.964 4.22-8.964 8.59 0 1.705.653 3.534 1.47 4.528a.594.594 0 01.137.568c-.15.627-.49 1.974-.552 2.25-.086.364-.287.44-.663.266-2.477-1.154-4.026-4.776-4.026-7.685 0-6.258 4.547-12.005 13.107-12.005 6.882 0 12.229 4.898 12.229 11.458 0 6.836-4.31 12.338-10.294 12.338-2.01 0-3.9-1.045-4.546-2.286 0 0-.996 3.788-1.236 4.716-.448 1.722-1.657 3.882-2.465 5.2A19.838 19.838 0 1020 0z"/></svg>