<svg xmlns="http://www.w3.org/2000/svg" width="40" height="40"><g fill="#FFF"><path d="M19.923 3.59c5.32 0 5.951.02 8.053.117 1.942.087 2.997.412 3.7.684.864.32 1.647.83 2.29 1.492a6.155 6.155 0 011.493 2.29c.274.699.597 1.757.686 3.7.096 2.096.117 2.731.117 8.05 0 5.319-.021 5.951-.117 8.053-.09 1.942-.412 2.997-.686 3.7a6.597 6.597 0 01-3.784 3.783c-.699.274-1.757.597-3.7.686-2.096.096-2.731.117-8.052.117-5.32 0-5.95-.024-8.045-.12-1.943-.09-2.998-.413-3.7-.687a6.155 6.155 0 01-2.29-1.49 6.182 6.182 0 01-1.491-2.29c-.273-.699-.598-1.757-.685-3.7-.096-2.096-.117-2.731-.117-8.052 0-5.32.015-5.95.112-8.045.087-1.943.412-2.998.684-3.7.32-.865.83-1.647 1.492-2.29a6.182 6.182 0 012.29-1.491c.699-.273 1.757-.598 3.7-.685 2.096-.096 2.731-.117 8.05-.117V3.59zm0-3.585c-5.415 0-6.089.023-8.21.12-2.12.099-3.573.429-4.84.923a9.782 9.782 0 00-3.53 2.295 9.782 9.782 0 00-2.295 3.53C.554 8.14.217 9.588.121 11.703.024 13.818 0 14.498 0 19.913c0 5.415.023 6.09.12 8.21.098 2.118.434 3.585.928 4.852a9.752 9.752 0 002.295 3.532 9.755 9.755 0 003.53 2.298c1.267.493 2.715.83 4.837.926 2.122.096 2.795.12 8.21.12 5.414 0 6.09-.022 8.21-.12 2.118-.098 3.57-.433 4.836-.926a10.197 10.197 0 005.827-5.827c.493-1.266.83-2.716.926-4.837.096-2.12.12-2.803.12-8.21 0-5.405-.022-6.088-.12-8.209-.098-2.12-.418-3.582-.917-4.849a9.755 9.755 0 00-2.295-3.53 9.752 9.752 0 00-3.532-2.295c-1.267-.493-2.716-.83-4.837-.926C26.018.026 25.328 0 19.923 0v.005z"/><path d="M19.923 9.693a10.232 10.232 0 1010.232 10.23c0-5.65-4.581-10.23-10.232-10.23zm0 16.873a6.638 6.638 0 110-13.275 6.638 6.638 0 010 13.275z"/><circle cx="30.559" cy="9.289" r="2.391"/></g></svg>